<svg xmlns="http://www.w3.org/2000/svg" xmlns:xlink="http://www.w3.org/1999/xlink" width="24" height="22" viewBox="0 0 24 22">
  <defs>
    <clipPath id="clip-add_post">
      <rect width="24" height="22"/>
    </clipPath>
  </defs>
  <g id="add_post" clip-path="url(#clip-add_post)">
    <rect width="24" height="22" fill="rgba(255,255,255,0)"/>
    <g id="Group_919" data-name="Group 919" transform="translate(-109.005 -175.187)">
      <g id="noun_add_929467" transform="translate(111.336 176.518)">
        <path id="Path_2112" data-name="Path 2112" d="M24.957,11.381a9.671,9.671,0,1,0,0,13.676A9.675,9.675,0,0,0,24.957,11.381Zm-2.446,7.386a.814.814,0,0,1-.559.233H18.923v3.029a.8.8,0,0,1-.792.792.786.786,0,0,1-.792-.792V19H14.31a.792.792,0,0,1,0-1.584h3.029V14.386a.786.786,0,0,1,.792-.792h0a.786.786,0,0,1,.792.792v3.029h3.029a.786.786,0,0,1,.792.792A.935.935,0,0,1,22.511,18.766Z" transform="translate(-8.45 -8.55)" fill="#c91f3c"/>
      </g>
    </g>
  </g>
</svg>
